<?xml version="1.0" encoding="UTF-8"?>
<svg width="40px" height="53px" viewBox="0 0 40 53" version="1.1" xmlns="http://www.w3.org/2000/svg" xmlns:xlink="http://www.w3.org/1999/xlink">
    <!-- Generator: Sketch 52 (66869) - http://www.bohemiancoding.com/sketch -->
    <title>Group</title>
    <desc>Created with Sketch.</desc>
    <g id="Page-1" stroke="none" stroke-width="1" fill="none" fill-rule="evenodd">
        <g id="Coming-Soon-Page" transform="translate(-494.000000, -1895.000000)" fill="#FFFFFF" fill-rule="nonzero">
            <g id="outline-enhanced_encryption-24px" transform="translate(484.000000, 1893.000000)">
                <g id="Outline" transform="translate(10.000000, 2.500000)">
                    <g id="Group">
                        <path d="M35,17.5 L32.5,17.5 L32.5,12.5 C32.5,5.6 26.9,0 20,0 C13.1,0 7.5,5.6 7.5,12.5 L7.5,17.5 L5,17.5 C2.25,17.5 0,19.75 0,22.5 L0,47.5 C0,50.25 2.25,52.5 5,52.5 L35,52.5 C37.75,52.5 40,50.25 40,47.5 L40,22.5 C40,19.75 37.75,17.5 35,17.5 Z M12.25,12.5 C12.25,8.225 15.725,4.75 20,4.75 C24.275,4.75 27.75,8.225 27.75,12.5 L27.75,17.5 L12.25,17.5 L12.25,12.5 Z M35,47.5 L5,47.5 L5,22.5 L35,22.5 L35,47.5 Z" id="Shape"></path>
                        <polygon id="Shape" points="22.5 25 17.5 25 17.5 32.5 10 32.5 10 37.5 17.5 37.5 17.5 45 22.5 45 22.5 37.5 30 37.5 30 32.5 22.5 32.5"></polygon>
                    </g>
                </g>
            </g>
        </g>
    </g>
</svg>