<?xml version="1.0" encoding="UTF-8"?>
<svg width="40px" height="24px" viewBox="0 0 40 24" version="1.1" xmlns="http://www.w3.org/2000/svg" xmlns:xlink="http://www.w3.org/1999/xlink">
    <!-- Generator: Sketch 52 (66869) - http://www.bohemiancoding.com/sketch -->
    <title>Outline</title>
    <desc>Created with Sketch.</desc>
    <g id="Page-1" stroke="none" stroke-width="1" fill="none" fill-rule="evenodd">
        <g id="Coming-Soon-Page" transform="translate(-24.000000, -1075.000000)" fill="#FFFFFF" fill-rule="nonzero">
            <g id="privatekeys-box" transform="translate(17.000000, 1059.000000)">
                <g id="privatekey">
                    <g id="Outline" transform="translate(7.000000, 16.000000)">
                        <path d="M36.6666667,23.3333333 L26.6666667,23.3333333 L26.6666667,16.6666667 L22.2,16.6666667 C20.3,20.7 16.2,23.3333333 11.6666667,23.3333333 C5.23333333,23.3333333 0,18.1 0,11.6666667 C0,5.23333333 5.23333333,0 11.6666667,0 C16.2,0 20.2833333,2.63333333 22.2,6.66666667 L40,6.66666667 L40,16.6666667 L36.6666667,16.6666667 L36.6666667,23.3333333 Z M30,20 L33.3333333,20 L33.3333333,13.3333333 L36.6666667,13.3333333 L36.6666667,10 L19.9,10 L19.5166667,8.88333333 C18.35,5.56666667 15.1833333,3.33333333 11.6666667,3.33333333 C7.06666667,3.33333333 3.33333333,7.06666667 3.33333333,11.6666667 C3.33333333,16.2666667 7.06666667,20 11.6666667,20 C15.1833333,20 18.35,17.7666667 19.5166667,14.45 L19.9,13.3333333 L30,13.3333333 L30,20 Z M11.6666667,16.6666667 C8.91666667,16.6666667 6.66666667,14.4166667 6.66666667,11.6666667 C6.66666667,8.91666667 8.91666667,6.66666667 11.6666667,6.66666667 C14.4166667,6.66666667 16.6666667,8.91666667 16.6666667,11.6666667 C16.6666667,14.4166667 14.4166667,16.6666667 11.6666667,16.6666667 Z M11.6666667,10 C10.75,10 10,10.75 10,11.6666667 C10,12.5833333 10.75,13.3333333 11.6666667,13.3333333 C12.5833333,13.3333333 13.3333333,12.5833333 13.3333333,11.6666667 C13.3333333,10.75 12.5833333,10 11.6666667,10 Z" id="Shape"></path>
                    </g>
                </g>
            </g>
        </g>
    </g>
</svg>