<?xml version="1.0" encoding="UTF-8"?>
<svg width="30px" height="30px" viewBox="0 0 30 30" version="1.1" xmlns="http://www.w3.org/2000/svg" xmlns:xlink="http://www.w3.org/1999/xlink">
    <!-- Generator: Sketch 52 (66869) - http://www.bohemiancoding.com/sketch -->
    <title>Medium</title>
    <desc>Created with Sketch.</desc>
    <g id="Page-1" stroke="none" stroke-width="1" fill="none" fill-rule="evenodd">
        <g id="Coming-Soon-Page" transform="translate(-741.000000, -2719.000000)">
            <g id="Medium" transform="translate(741.000000, 2719.000000)">
                <path d="M0,15 C0,6.71572834 6.71572834,0 15,0 C23.2842717,0 30,6.71572834 30,15 C30,23.2842717 23.2842717,30 15,30 C6.71572834,30 0,23.2842717 0,15 Z" id="back" fill="#FFFFFF"></path>
                <g id="Group" transform="translate(7.500000, 8.500000)">
                    <path d="M10.1384403,0.0148063391 C10.0622801,-0.0235482722 10,0.0152221072 10,0.100974287 L10,10.6467254 L14.5846792,12.9555898 C14.8131082,13.0706537 15,12.9542905 15,12.697034 L15,2.545639 C15,2.4950712 14.9716205,2.448817 14.9267293,2.4262096 L10.1384403,0.0148063391" id="Fill-6" fill="#32FC8D"></path>
                    <path d="M5,8.01718883 L9.94246459,0.0790187515 C9.98731172,0.00702127584 10.0865976,-0.0209578144 10.1631228,0.0168600768 L14.9373459,2.37622504 C14.9968137,2.40558771 15.0180189,2.47907126 14.9831781,2.53502944 L10.0239671,10.5 L5,8.01718883" id="Fill-7" fill="#0BE370"></path>
                    <path d="M0.324556834,0.0684193338 C0.0125770389,-0.0850765254 -0.0931250768,0.0285239342 0.0896867324,0.320899476 L4.87867964,7.9798279 L10,10.5 L4.9117644,2.36243081 C4.89014832,2.32778891 4.8590719,2.29985693 4.82218186,2.28165173 L0.324556834,0.0684193338" id="Fill-9" fill="#14C767"></path>
                    <path d="M5,12.6957492 C5,12.9540967 4.81305855,13.0709533 4.5846319,12.9554015 L0.276929269,10.7767755 C0.124610431,10.699741 0,10.4958292 0,10.3235975 L0,0.202848285 C0,0.0306166362 0.124610431,-0.0473051371 0.276929269,0.0297293823 L4.93833977,2.38726751 C4.97610988,2.40636956 5,2.44540874 5,2.4881535 L5,12.6957492" id="Fill-10" fill="#00AB6C"></path>
                </g>
            </g>
        </g>
    </g>
</svg>