<?xml version="1.0" encoding="UTF-8"?>
<svg width="27px" height="35px" viewBox="0 0 27 35" version="1.1" xmlns="http://www.w3.org/2000/svg" xmlns:xlink="http://www.w3.org/1999/xlink">
    <!-- Generator: Sketch 52 (66869) - http://www.bohemiancoding.com/sketch -->
    <title>Group</title>
    <desc>Created with Sketch.</desc>
    <g id="Page-1" stroke="none" stroke-width="1" fill="none" fill-rule="evenodd">
        <g id="Coming-Soon-Page" transform="translate(-374.000000, -1293.000000)" fill="#FFFFFF" fill-rule="nonzero">
            <g id="deadmanbox" transform="translate(360.000000, 1285.000000)">
                <g id="deadman">
                    <g id="Group" transform="translate(14.000000, 8.000000)">
                        <path d="M23.3333333,11.6666667 L21.6666667,11.6666667 L21.6666667,8.33333333 C21.6666667,3.73333333 17.9333333,0 13.3333333,0 C8.73333333,0 5,3.73333333 5,8.33333333 L8.33333333,8.33333333 C8.33333333,5.56666667 10.5666667,3.33333333 13.3333333,3.33333333 C16.1,3.33333333 18.3333333,5.56666667 18.3333333,8.33333333 L18.3333333,11.6666667 L3.33333333,11.6666667 C1.5,11.6666667 0,13.1666667 0,15 L0,31.6666667 C0,33.5 1.5,35 3.33333333,35 L23.3333333,35 C25.1666667,35 26.6666667,33.5 26.6666667,31.6666667 L26.6666667,15 C26.6666667,13.1666667 25.1666667,11.6666667 23.3333333,11.6666667 Z M23.3333333,31.6666667 L3.33333333,31.6666667 L3.33333333,15 L23.3333333,15 L23.3333333,31.6666667 Z" id="Shape"></path>
                        <path d="M13.3333333,26.6666667 C15.1666667,26.6666667 16.6666667,25.1666667 16.6666667,23.3333333 C16.6666667,21.5 15.1666667,20 13.3333333,20 C11.5,20 10,21.5 10,23.3333333 C10,25.1666667 11.5,26.6666667 13.3333333,26.6666667 Z" id="Shape"></path>
                    </g>
                </g>
            </g>
        </g>
    </g>
</svg>